<?xml version="1.0" standalone="no"?>
<!DOCTYPE svg PUBLIC "-//W3C//DTD SVG 20010904//EN"
 "http://www.w3.org/TR/2001/REC-SVG-20010904/DTD/svg10.dtd">
<svg version="1.0" xmlns="http://www.w3.org/2000/svg"
 width="512.000000pt" height="512.000000pt" viewBox="0 0 512.000000 512.000000"
 preserveAspectRatio="xMidYMid meet">

<g transform="translate(0.000000,512.000000) scale(0.100000,-0.100000)"
fill="#000000" stroke="none">
<path d="M2255 4916 c-443 -64 -831 -227 -1169 -494 -91 -71 -317 -297 -388
-388 -200 -254 -362 -579 -437 -880 -59 -238 -66 -295 -66 -594 0 -299 7 -356
66 -594 75 -301 237 -626 437 -880 71 -91 297 -317 388 -388 351 -277 764
-446 1215 -498 139 -16 510 -8 639 14 388 67 741 218 1049 449 110 82 351 318
433 423 227 288 392 643 463 989 61 301 61 668 0 970 -57 279 -178 571 -338
813 -94 144 -161 227 -292 361 -195 201 -388 341 -640 466 -224 112 -425 177
-675 221 -126 22 -557 28 -685 10z m555 -246 c478 -60 910 -270 1250 -610 339
-338 551 -773 610 -1250 13 -109 13 -391 0 -500 -59 -477 -271 -911 -610
-1250 -338 -339 -773 -551 -1250 -610 -109 -13 -391 -13 -500 1 -734 91 -1365
549 -1677 1217 -88 189 -156 427 -183 642 -15 127 -13 415 6 539 94 643 454
1191 1004 1527 244 149 552 256 840 293 96 12 412 13 510 1z"/>
<path d="M3420 3279 c-14 -5 -280 -265 -592 -577 l-568 -567 -262 261 c-145
144 -273 267 -285 273 -12 6 -38 11 -58 11 -108 0 -161 -108 -96 -196 16 -21
165 -175 332 -341 263 -260 309 -302 342 -308 22 -4 49 -3 65 4 15 6 310 294
656 640 617 617 628 629 633 672 5 55 -23 104 -72 125 -39 16 -60 17 -95 3z"/>
</g>
</svg>
