<?xml version="1.0" standalone="no"?>
<!DOCTYPE svg PUBLIC "-//W3C//DTD SVG 20010904//EN"
 "http://www.w3.org/TR/2001/REC-SVG-20010904/DTD/svg10.dtd">
<svg version="1.0" xmlns="http://www.w3.org/2000/svg"
 width="512.000000pt" height="512.000000pt" viewBox="0 0 512.000000 512.000000"
 preserveAspectRatio="xMidYMid meet">

<g transform="translate(0.000000,512.000000) scale(0.100000,-0.100000)"
fill="#000000" stroke="none">
<path d="M2357 5110 c-662 -64 -1197 -312 -1622 -751 -445 -460 -695 -1059
-721 -1729 -37 -937 422 -1791 1216 -2260 167 -99 475 -240 525 -240 13 0 15
92 15 778 l0 777 -223 223 -224 223 -64 -21 c-53 -18 -81 -21 -164 -18 -91 3
-107 7 -178 40 -301 143 -369 524 -136 757 234 235 613 165 758 -139 32 -67
36 -85 39 -175 3 -83 0 -111 -18 -164 l-21 -64 254 -256 c211 -212 257 -263
266 -296 7 -27 11 -312 11 -897 l0 -856 68 -11 c79 -13 229 -31 254 -31 17 0
18 68 17 1458 l0 1457 -59 28 c-231 109 -324 394 -207 630 82 165 232 257 417
257 138 0 245 -46 338 -144 217 -229 151 -611 -128 -743 l-59 -28 0 -1457 c-1
-1390 0 -1458 17 -1458 25 0 175 18 255 31 l67 11 0 856 c0 585 4 870 11 897
9 33 55 84 266 296 l254 256 -21 62 c-24 72 -28 193 -10 262 56 207 249 359
455 359 218 0 420 -164 464 -378 44 -213 -63 -423 -266 -520 -71 -33 -87 -37
-178 -40 -83 -3 -111 0 -164 18 l-64 21 -224 -223 -223 -223 0 -777 c0 -717 1
-778 17 -778 24 0 235 86 344 141 490 245 866 609 1109 1071 140 268 225 543
271 878 17 124 18 495 1 630 -75 590 -316 1106 -707 1509 -395 407 -870 645
-1460 731 -159 23 -436 33 -568 20z"/>
<path d="M2500 3523 c-63 -26 -110 -95 -110 -161 0 -59 38 -122 90 -149 55
-29 105 -29 160 0 109 57 119 217 18 288 -32 23 -125 36 -158 22z"/>
<path d="M1065 2723 c-68 -17 -132 -113 -122 -184 12 -94 89 -155 184 -147 57
5 92 25 127 72 32 42 30 149 -3 195 -39 54 -117 81 -186 64z"/>
<path d="M3934 2712 c-64 -30 -89 -74 -89 -154 0 -52 5 -73 21 -94 35 -47 70
-67 127 -72 131 -11 222 112 169 230 -40 91 -141 130 -228 90z"/>
</g>
</svg>
